Coordinates
version=1
nRows=13
nColumns=36
inDegrees=yes

Units are S.I. units (second, meters, Newtons, ...)
If the header above contains a line with 'inDegrees', this indicates whether rotational values are in degrees (yes) or radians (no).

endheader
time	pelvis_tilt	pelvis_list	pelvis_rotation	pelvis_tx	pelvis_ty	pelvis_tz	hip_flexion_r	hip_adduction_r	hip_rotation_r	knee_angle_r	knee_angle_r_beta	ankle_angle_r	subtalar_angle_r	mtp_angle_r	hip_flexion_l	hip_adduction_l	hip_rotation_l	knee_angle_l	knee_angle_l_beta	ankle_angle_l	subtalar_angle_l	mtp_angle_l	lumbar_extension	lumbar_bending	lumbar_rotation	arm_flex_r	arm_add_r	arm_rot_r	elbow_flex_r	pro_sup_r	arm_flex_l	arm_add_l	arm_rot_l	elbow_flex_l	pro_sup_l
      4.86666670	     -1.95702994	     -2.90005892	     -4.12769485	     -0.34567924	      1.21181269	     -0.08740033	     -0.47436875	      2.20316553	     -0.02123864	      4.61304650	      0.08051285	     11.04363123	     -9.49458308	     -7.49999987	     -2.45589239	     -5.62941267	      1.21516382	      0.26776150	      0.00467332	     14.83734470	      2.79909293	     -7.49999987	     -5.25433525	      1.29093910	      3.36464101	      4.10195388	     -7.34591294	     18.22114598	     26.10156611	     75.48097805	      1.61336495	     -6.75102608	     18.39766811	     27.70884444	     73.00447041
      4.88333330	     -2.34833702	     -2.86260012	     -4.24312703	     -0.35198273	      1.21090806	     -0.08470800	      0.13393127	      2.25975791	      0.29211795	      4.62833374	      0.08077966	     11.15758715	     -9.49002470	     -7.49999987	     -1.95929738	     -5.60314549	      1.27085675	      0.26521807	      0.00462893	     14.76762097	      2.53328984	     -7.49999987	     -4.73897336	      1.26524244	      3.50941501	      4.23476311	     -7.28000201	     18.51603699	     25.59471364	     76.20666380	      1.82952121	     -6.83555837	     18.91142542	     27.26134555	     73.62030803
      4.90000000	     -2.22931751	     -2.86170077	     -4.21148213	     -0.35209183	      1.21086429	     -0.08439722	      0.09350164	      2.33945786	      0.51747676	      4.42406386	      0.07721448	     11.18680954	     -9.31551886	     -7.49999987	     -1.99301302	     -5.61869546	      1.20848727	      0.26547324	      0.00463338	     14.74821803	      2.74333160	     -7.49999987	     -5.00913202	      1.21554671	      3.34180569	      4.25561195	     -7.19117241	     18.35848847	     25.88332088	     75.61581373	      1.93478003	     -6.98969728	     18.97571596	     27.31822998	     73.11758149
      4.91666670	     -2.24289045	     -2.86202387	     -4.13389584	     -0.35205768	      1.21078133	     -0.08478300	      0.22129378	      2.41148659	      0.56292802	      4.31751711	      0.07535489	     11.29645837	     -8.98582690	     -7.49999987	     -1.87633704	     -5.63731702	      1.43492498	      0.26762889	      0.00467101	     14.63765714	      2.48971332	     -7.49999987	     -5.11776537	      1.18843141	      3.18607713	      4.19860646	     -7.20175334	     18.27920911	     26.29788084	     75.24651532	      2.00608665	     -7.13541365	     19.10651404	     27.52746773	     72.79183493
      4.93333330	     -2.38380501	     -2.79700233	     -4.11161163	     -0.35201167	      1.21034311	     -0.08432566	      0.48868911	      2.49326118	      1.36040878	      4.16223585	      0.07264472	     11.28360467	     -9.37160843	     -7.49999987	     -1.64807097	     -5.59518963	      1.47475071	      0.27531759	      0.00480520	     14.58738307	      2.52826680	     -7.49999987	     -4.95239289	      1.07872191	      3.32322626	      3.93761190	     -7.25979698	     18.00224252	     26.69779837	     77.33925317	      2.17761158	     -7.44749179	     20.31956803	     27.49517001	     74.50999640
      4.95000000	     -2.39090241	     -2.72490362	     -3.93932242	     -0.35184694	      1.20755247	     -0.08463642	      0.59205872	      2.51028646	      1.57419459	      4.08124421	      0.07123115	     11.67834804	     -8.87672277	     -7.49999987	     -1.55080524	     -5.55057558	      1.61683134	      0.28935639	      0.00505022	     14.55559295	      2.49572396	     -7.49999987	     -4.96749057	      0.93669556	      3.16673333	      3.77389860	     -7.10890817	     17.52044810	     26.94920965	     76.74844980	      2.26323917	     -7.51674959	     20.15304391	     27.56790335	     73.89426772
      4.96666670	     -2.29278162	     -2.64544872	     -3.77677876	     -0.34529939	      1.20795871	     -0.08717405	      0.47487631	      2.45973104	      1.90247518	      3.98544651	      0.06955916	     11.94823576	     -8.42195957	     -7.49999987	     -1.70517912	     -5.47408248	      1.76272642	      0.30323691	      0.00529248	     14.55291168	      2.51995039	     -7.49999987	     -4.95911072	      0.83528199	      3.04127989	      3.32401342	     -7.15256028	     17.07052730	     27.65180359	     77.67619409	      1.96757153	     -7.67316661	     20.23331497	     28.12281931	     74.59805391
      4.98333330	     -2.28930106	     -2.64382062	     -3.71761237	     -0.35172276	      1.20777666	     -0.08474162	      0.50608212	      2.48131856	      2.12415076	      3.97073453	      0.06930239	     12.06348393	     -8.35320393	     -7.49999987	     -1.68129065	     -5.48897310	      1.78514131	      0.31255247	      0.00545507	     14.61868442	      2.52781944	     -7.49999987	     -4.91503729	      0.79571081	      2.94710192	      3.30110955	     -7.15936503	     17.05824132	     27.65468809	     77.69252385	      2.07008102	     -7.68801695	     20.22523511	     28.13430109	     74.60964508
      5.00000000	     -2.22939651	     -2.57782819	     -3.71442211	     -0.34501222	      1.20808938	     -0.08716542	      0.41459140	      2.40157586	      2.55827972	      4.01176070	      0.07001843	     12.37810954	     -8.23998824	     -7.49999987	     -1.89249192	     -5.41737632	      1.85929468	      0.32298014	      0.00563707	     14.59842694	      2.58985147	     -7.49999987	     -4.75564153	      0.73194921	      2.87750210	      3.16313678	     -7.10839828	     17.03315101	     27.65399071	     77.73754519	      1.87334752	     -7.68313494	     20.24676416	     28.04216222	     74.64395644
      5.01666670	     -2.27925301	     -2.55599221	     -3.82142644	     -0.35145638	      1.20786459	     -0.08454006	      0.55273466	      2.37254204	      2.85272288	      4.02648454	      0.07027541	     12.64649378	     -8.12900759	     -7.49999987	     -1.89946822	     -5.39794534	      1.82593890	      0.33515565	      0.00584957	     14.74599672	      2.60039470	     -7.49999987	     -4.72872238	      0.70244238	      2.87134253	      3.28085330	     -7.08451093	     16.99183182	     27.69809174	     77.78830389	      1.86432685	     -7.69542380	     20.25925569	     27.98638059	     74.68125767
      5.03333330	     -2.27322154	     -2.54613213	     -3.94637645	     -0.35130519	      1.20795976	     -0.08415603	      0.65659179	      2.37654572	      3.17420497	      4.08398962	      0.07127907	     12.79889118	     -8.17322379	     -7.49999987	     -1.95222517	     -5.40630531	      1.55546820	      0.34416431	      0.00600680	     14.78829993	      2.88302393	     -7.49999987	     -4.72643191	      0.64570608	      2.91103391	      3.27938218	     -6.98824292	     16.84737582	     27.46846669	     77.32248357	      1.86808061	     -7.65675089	     20.22542485	     27.76356387	     74.23812796
      5.05000000	     -2.38076671	     -2.50265796	     -4.01962226	     -0.35116246	      1.20810446	     -0.08434864	      0.89900143	      2.32581732	      3.09785104	      4.15002746	      0.07243164	     13.05871083	     -7.76257880	     -7.49999987	     -1.85444806	     -5.35877659	      1.48224639	      0.34901928	      0.00609154	     14.75325564	      2.84791705	     -7.49999987	     -4.63591888	      0.59392527	      2.87206363	      3.22576085	     -6.94963875	     16.69966439	     27.47219950	     76.91335127	      1.77805550	     -7.66631285	     20.24948648	     27.77955859	     73.87675686
      5.06666670	     -2.42500067	     -2.41888696	     -4.15915701	     -0.35122483	      1.20809062	     -0.08402182	      1.03590493	      2.22393427	      3.48664416	      4.10779469	      0.07169454	     12.99015942	     -8.10761176	     -7.49999987	     -1.75640458	     -5.25421377	      1.53962935	      0.35987576	      0.00628102	     14.70844375	      2.57754364	     -7.49999987	     -4.54868288	      0.44966210	      3.00313075	      3.36779734	     -6.91644803	     16.95245458	     26.92082217	     77.15998100	      1.96334769	     -7.70031702	     20.99147235	     27.33326346	     73.91062008
